<?xml version="1.0" encoding="UTF-8"?>
<svg xmlns="http://www.w3.org/2000/svg" xmlns:xlink="http://www.w3.org/1999/xlink" version="1.1" id="Layer_1" x="0px" y="0px" style="enable-background:new 0 0 632.7 421.8;" xml:space="preserve" viewBox="62.88 106.69 516.42 195.21">
<style type="text/css">
	.st0{fill-rule:evenodd;clip-rule:evenodd;fill:#000000;}
	.st1{fill-rule:evenodd;clip-rule:evenodd;fill:#D6001C;}
</style>
<path class="st0" d="M127.6,169l-27.4,0.1l0,12.7c0,5.5-0.3,9.1-0.9,10.6c-0.6,1.5-1.9,2.3-4,2.3  c-2.1,0-3.5-0.7-4.1-2.2c-0.6-1.5-0.9-4.7-0.9-9.6l-0.1-46.9c0-5.1,0.3-8.4,0.9-10c0.6-1.5,2-2.3,4.3-2.3c2,0,3.3,0.6,3.9,1.9  c0.6,1.3,0.9,4.5,0.9,9.6l0,17.6l27.4-0.1l0-9.6c-0.1-9.4-0.9-16.4-2.5-20.8c-1.7-4.5-5.1-8.2-10.4-11.2c-5.3-3-11.9-4.4-20-4.4  c-5.4-0.1-10.8,0.9-15.8,3c-4.2,1.7-7.9,4.4-10.7,8c-2.4,3.1-4,6.7-4.6,10.5c-0.6,5.4-0.8,10.9-0.7,16.4l0.1,29.5  c0,9.9,0.9,17.3,2.6,22.2c1.4,4.1,4.1,7.6,7.7,9.9c0.4,0.3,2.4,1.5,2.7,1.6c0.6,0.3,3.9,1.7,4.5,1.9c1.3,0.4,2.6,0.8,3.9,1.1  c0.5,0.1,3.6,0.6,3.6,0.6s5,0.5,7.8,0.5c7.7,0,14.2-1.7,19.4-5c5.3-3.3,8.7-7.1,10.2-11.5c1.5-4.4,2.3-11.8,2.3-22.2L127.6,169z   M287.6,189l-16.5,0l0-80.2l-27,0l0,100.3l43.4,0L287.6,189z M239.9,189l-16.5,0l0-80.2l-27.1,0l0,100.3l43.4,0L239.9,189z   M310.6,128l-12.9,0l0,34.8l7.6,0l0-15.9l4.7,0l0-5.1l-4.7,0l0-7.9l5.3,0L310.6,128z M139.6,109.2l-13.8,100.3l24.6,0  c0,0,0.9-7.4,2.2-17.9l14.9,0l2.4,17.9l24.3,0l-15.5-100.3L139.6,109.2z M154.9,173.6c2-16,4.2-33.3,5.4-42.1  c0.6,7.8,4.8,41.3,5,42.1L154.9,173.6z M278,156.9c0.1,1.3,0.6,2.5,1.3,3.5c0.7,1,1.8,1.7,2.9,2.1c1.3,0.5,2.7,0.8,4.2,0.8  c1.5,0,2.9-0.3,4.3-0.9c1.2-0.4,2.2-1.2,2.9-2.2c0.7-1,1.1-2.2,1.3-3.5c0.2-2.3,0.3-4.5,0.2-6.8l0-10.7c0-1.9,0-3.8-0.2-5.7  c0-1.1-0.4-2.1-1.1-2.9c-0.7-1-1.7-1.8-2.9-2.3c-1.4-0.5-2.9-0.8-4.4-0.8c-1.5,0-3.1,0.2-4.5,0.8c-1.2,0.5-2.2,1.3-2.9,2.3  c-0.6,0.9-1,1.9-1,2.9c-0.1,1.3-0.2,4.4-0.2,7.5l0,8.9C277.8,153.2,277.9,155.7,278,156.9L278,156.9z M285.6,132.8  c0.2-0.3,0.5-0.5,0.9-0.5c0.4,0,0.8,0.2,0.9,0.6c0.2,1.1,0.2,2.1,0.2,3.2l0,18.5c0.1,1.1,0,2.3-0.2,3.4c-0.1,0.4-0.5,0.8-1,0.7  c-0.4,0-0.8-0.2-1-0.6c-0.2-1.1-0.3-2.3-0.2-3.4l0-18.5C285.2,135,285.3,133.9,285.6,132.8L285.6,132.8z M418.7,108.7l0,74  c0,5-0.2,8.2-0.7,9.5c-0.5,1.4-1.9,2.2-3.3,2c-1.3,0.1-2.5-0.6-3-1.8c-0.5-1.2-0.7-4-0.7-8.4l0-75.3l-27.2,0l0,59.4  c0,11.3,0.2,18.8,0.7,22.3c0.5,3.7,1.9,7.1,4.2,10.1c2.4,3.2,6,5.8,10.7,7.7c5.3,2.1,10.9,3.1,16.6,3c5,0.1,10-0.7,14.7-2.5  c4-1.5,7.4-4.1,10.1-7.4c2.3-2.7,3.9-6,4.6-9.5c0.6-5.3,0.9-10.7,0.8-16l0-67.1L418.7,108.7z M568.7,195.4v-0.1  c2.2-0.7,3.4-3.1,2.7-5.3c-0.2-0.7-0.6-1.3-1.1-1.8c-1.3-0.9-2.9-1.3-4.5-1.2c-1.4,0-2.8,0.1-4.2,0.4v15.7h2.3v-6.7h1.6  c1.9,0,2.8,0.7,3.2,2.7c0.1,1.4,0.4,2.7,1,4h2.5c-0.5-1.2-0.8-2.5-0.9-3.9C570.9,196.9,570,195.6,568.7,195.4z M565.5,194.4l-1.7,0  v-5.3c0.6-0.1,1.1-0.1,1.7-0.1c2.6,0,3.6,1.4,3.6,2.7C569.1,193.6,567.5,194.4,565.5,194.4L565.5,194.4z M566.7,108.5l-25.1,0  c-3.6,15.7-6.1,28.9-7.6,39.6c-0.5-6.8-2.7-20-6.6-39.6l-78.3,0.2l0.2,20.1l16,0l0,80.2l27.3,0l0-80.2l15.9,0l13.2,44l0,36.3l25.3,0  l0-36.4L566.7,108.5z M566.4,180.8L566.4,180.8c-7.2,0-13.1,6.3-13.1,14.1c0,7.9,5.8,14.1,13,14.1c7.2,0,13-6.2,13-14.1  C579.3,187.1,573.6,180.8,566.4,180.8L566.4,180.8z M566.4,206.8c-5.8,0-10.6-5.3-10.6-11.9c0-6.6,4.7-11.9,10.5-11.9h0.1  c5.8,0,10.5,5.3,10.5,11.9C576.9,201.6,572.2,206.9,566.4,206.8L566.4,206.8z M377.5,125c-0.6-3.3-2.2-6.4-4.5-8.8  c-2.4-2.6-6-4.5-10.6-5.7c-4.6-1.1-13.5-1.7-26.7-1.7l-20.4,0l0,100.3l34.4,0c4.9,0.1,9.8-0.2,14.6-1c3-0.6,5.8-1.8,8.2-3.6  c2.3-1.8,3.9-4.3,4.6-7.1c0.9-3,1.3-9,1.3-18l0-35.1C378.4,134.6,378.1,128.2,377.5,125z M349.8,189.6c-0.9,1.5-3.3,2.3-7.2,2.3  l0-66c3,0,5,0.3,6.1,0.9c1.1,0.6,1.8,1.6,2.1,2.8c0.4,2.9,0.6,5.8,0.5,8.8l0,39C351.2,184,350.7,188.1,349.8,189.6z"/>
<path class="st1" d="M286.8,268.5h4.6v20.3l-0.5,0.1c-1.2,0.2-2.3,0.4-3.5,0.4c-2.3,0-3.9-0.7-4.9-2  c-0.9-1.2-1.5-3.6-1.8-7.3c-0.3-3.5-0.4-9.6-0.4-18.1c0-9,0.3-15.2,0.8-18.7c0.5-3.6,1.6-5.8,3.2-6.8c1.5-0.9,4.2-1.3,8.2-1.3  c3.6,0.1,7.3,0.4,10.9,1v-12.1c-2.3-0.7-4.6-1.2-6.9-1.5c-2.6-0.4-5.2-0.6-7.8-0.6c-6.1,0-10.7,1.1-13.7,3.2  c-3,2.1-5.1,5.9-6.2,11.3c-1.2,5.5-1.8,14.1-1.8,25.4c0,11.3,0.6,19.8,1.7,25.4c1.1,5.5,3,9.3,5.8,11.4c2.8,2.1,7,3.1,12.6,3.1  c3,0,6-0.2,9-0.7c2.5-0.3,5-0.9,7.5-1.6v-43.9h-16.6V268.5z M230.8,258.8h-1.7l-10.6-35.9h-12.6v78h12.8v-39.7h1.6l11.6,39.7h11.9  v-78h-12.9L230.8,258.8z M350.6,272.2c0,5.5-0.1,9.3-0.2,11.3c-0.2,2.1-0.5,3.5-1.2,4.1c-0.7,0.7-1.9,1.1-3.6,1.1  c-1.7,0-2.9-0.4-3.6-1.1c-0.7-0.7-1-2-1.2-4.1c-0.1-2-0.2-5.8-0.2-11.3v-49.2H327v43.6c0,10.4,0.3,18,1,22.5  c0.6,4.4,2.2,7.7,4.8,9.7c2.5,2,6.9,3.1,12.9,3.1c6,0,10.4-1,12.9-3.1c2.5-2,4.2-5.3,4.8-9.7c0.6-4.5,1-12.1,1-22.5v-43.6h-13.7  L350.6,272.2z M106.1,282.1h-3l-5.8-59.2H83.6l10,78H115l10-78h-13.4L106.1,282.1z M153.7,222.9l-11,78h13.5l7.4-61.2h1.3l5.3,43.9  h-9.9l-1.3,12.2h12.6l0.6,5.1h13.8l-11-78H153.7z M395.8,222.9l-11,78h13.5l7.3-61.2h1.3l5.3,43.9h-9.9l-1.3,12.2h12.6l0.6,5.1h13.8  l-11-78H395.8z M479.2,270.6c2.3-2.1,3.9-5,4.5-8.1c0.9-4.7,1.3-9.4,1.2-14.2c0.1-5-0.3-9.9-1.3-14.8c-0.6-3.1-2.3-6-4.8-8  c-2.4-1.8-6-2.7-10.7-2.7h-20.4v78h13.6v-27h5.6l5.6,27h14.1l-7.5-30.1L479.2,270.6z M470.9,256.8c-0.2,1.7-0.7,2.9-1.5,3.5  c-1.1,0.7-2.5,1-3.8,0.9h-4.4v-25h4.4c1.3-0.1,2.7,0.2,3.8,0.9c0.9,0.9,1.5,2.2,1.5,3.5c0.3,2.7,0.4,5.4,0.3,8.1  C471.3,251.3,471.2,254,470.9,256.8L470.9,256.8z M539.4,226.3c-2.6-2.2-7-3.3-13.3-3.3h-17.5v78h17.5c6.2,0,10.7-1.1,13.3-3.3  c2.6-2.2,4.2-5.8,4.9-10.6c0.6-5,1-13.4,1-25c0-11.7-0.3-20.1-1-25C543.6,232.1,542,228.5,539.4,226.3L539.4,226.3z M531.5,280  c-0.2,4.5-0.9,5.7-1.3,6.3c-0.7,0.9-2.1,1.4-4.1,1.4h-4v-51.6h4c2,0,3.3,0.5,4.1,1.4c0.4,0.6,1.1,1.8,1.3,6.3  c0.2,3.2,0.3,9.3,0.3,18.1S531.7,276.8,531.5,280L531.5,280z"/>
</svg>